<?xml version="1.0" encoding="UTF-8"?>
<svg width="24px" height="24px" viewBox="0 0 24 24" version="1.1" xmlns="http://www.w3.org/2000/svg">
    <title>Shield Icon</title>
    <g stroke="none" stroke-width="1" fill="none" fill-rule="evenodd">
        <path d="M12,2 L4,5.5 L4,12 C4,16.1421 7.49746,20 12,20 C16.5025,20 20,16.1421 20,12 L20,5.5 L12,2 Z" fill="#4461F2" fill-rule="nonzero"></path>
        <path d="M12,4 L6,6.75 L6,12 C6,15.1066 8.73375,18 12,18 C15.2662,18 18,15.1066 18,12 L18,6.75 L12,4 Z" fill="#FFFFFF" fill-rule="nonzero"></path>
        <path d="M12,6 L8,8 L8,12 C8,14.0711 9.9775,16 12,16 C14.0225,16 16,14.0711 16,12 L16,8 L12,6 Z" fill="#4461F2" fill-rule="nonzero"></path>
        <path d="M12,11 L10,9 L11,8.5 L12,9.5 L13.5,8 L14.5,9 L12,11 Z" fill="#FFFFFF" fill-rule="nonzero"></path>
    </g>
</svg>
